<mxfile host="app.diagrams.net" modified="2024-04-12T14:08:40.878Z" agent="Mozilla/5.0 (Windows NT 10.0; Win64; x64) AppleWebKit/537.36 (KHTML, like Gecko) Chrome/123.0.0.0 Safari/537.36" etag="hQxYVYRtwX2NK0k6_H45" version="24.0.7" type="github">
  <diagram name="Page-1" id="dqzBqce6mkWaMILGolxg">
    <mxGraphModel dx="2415" dy="840" grid="1" gridSize="10" guides="1" tooltips="1" connect="1" arrows="1" fold="1" page="1" pageScale="1" pageWidth="827" pageHeight="1169" math="0" shadow="0">
      <root>
        <mxCell id="0" />
        <mxCell id="1" parent="0" />
        <mxCell id="rmpbK_NkBcnPXk61O0qN-1" value="start" style="ellipse;whiteSpace=wrap;html=1;" vertex="1" parent="1">
          <mxGeometry x="370" width="70" height="30" as="geometry" />
        </mxCell>
        <mxCell id="rmpbK_NkBcnPXk61O0qN-2" value="home" style="shape=parallelogram;perimeter=parallelogramPerimeter;whiteSpace=wrap;html=1;fixedSize=1;" vertex="1" parent="1">
          <mxGeometry x="340" y="60" width="130" height="30" as="geometry" />
        </mxCell>
        <mxCell id="rmpbK_NkBcnPXk61O0qN-3" value="navigate between tabs" style="rounded=0;whiteSpace=wrap;html=1;" vertex="1" parent="1">
          <mxGeometry x="340" y="120" width="130" height="30" as="geometry" />
        </mxCell>
        <mxCell id="rmpbK_NkBcnPXk61O0qN-4" value="home" style="shape=parallelogram;perimeter=parallelogramPerimeter;whiteSpace=wrap;html=1;fixedSize=1;" vertex="1" parent="1">
          <mxGeometry x="20" y="210" width="130" height="30" as="geometry" />
        </mxCell>
        <mxCell id="rmpbK_NkBcnPXk61O0qN-5" value="about" style="shape=parallelogram;perimeter=parallelogramPerimeter;whiteSpace=wrap;html=1;fixedSize=1;" vertex="1" parent="1">
          <mxGeometry x="150" y="210" width="130" height="30" as="geometry" />
        </mxCell>
        <mxCell id="rmpbK_NkBcnPXk61O0qN-6" value="blog" style="shape=parallelogram;perimeter=parallelogramPerimeter;whiteSpace=wrap;html=1;fixedSize=1;" vertex="1" parent="1">
          <mxGeometry x="280" y="210" width="130" height="30" as="geometry" />
        </mxCell>
        <mxCell id="rmpbK_NkBcnPXk61O0qN-7" value="location" style="shape=parallelogram;perimeter=parallelogramPerimeter;whiteSpace=wrap;html=1;fixedSize=1;" vertex="1" parent="1">
          <mxGeometry x="410" y="210" width="130" height="30" as="geometry" />
        </mxCell>
        <mxCell id="rmpbK_NkBcnPXk61O0qN-8" value="pages" style="shape=parallelogram;perimeter=parallelogramPerimeter;whiteSpace=wrap;html=1;fixedSize=1;" vertex="1" parent="1">
          <mxGeometry x="540" y="210" width="130" height="30" as="geometry" />
        </mxCell>
        <mxCell id="rmpbK_NkBcnPXk61O0qN-9" value="contact" style="shape=parallelogram;perimeter=parallelogramPerimeter;whiteSpace=wrap;html=1;fixedSize=1;" vertex="1" parent="1">
          <mxGeometry x="670" y="210" width="130" height="30" as="geometry" />
        </mxCell>
        <mxCell id="rmpbK_NkBcnPXk61O0qN-10" value="dashboard" style="shape=parallelogram;perimeter=parallelogramPerimeter;whiteSpace=wrap;html=1;fixedSize=1;" vertex="1" parent="1">
          <mxGeometry x="800" y="210" width="130" height="30" as="geometry" />
        </mxCell>
        <mxCell id="rmpbK_NkBcnPXk61O0qN-11" value="1" style="rhombus;whiteSpace=wrap;html=1;" vertex="1" parent="1">
          <mxGeometry x="842.5" y="270" width="45" height="40" as="geometry" />
        </mxCell>
        <mxCell id="rmpbK_NkBcnPXk61O0qN-13" value="login" style="shape=parallelogram;perimeter=parallelogramPerimeter;whiteSpace=wrap;html=1;fixedSize=1;" vertex="1" parent="1">
          <mxGeometry x="800" y="340" width="130" height="30" as="geometry" />
        </mxCell>
        <mxCell id="rmpbK_NkBcnPXk61O0qN-14" value="email &amp;amp; password" style="rounded=0;whiteSpace=wrap;html=1;" vertex="1" parent="1">
          <mxGeometry x="800" y="400" width="130" height="30" as="geometry" />
        </mxCell>
        <mxCell id="rmpbK_NkBcnPXk61O0qN-15" value="2" style="rhombus;whiteSpace=wrap;html=1;" vertex="1" parent="1">
          <mxGeometry x="842.5" y="460" width="45" height="40" as="geometry" />
        </mxCell>
        <mxCell id="rmpbK_NkBcnPXk61O0qN-16" value="dashbord" style="shape=parallelogram;perimeter=parallelogramPerimeter;whiteSpace=wrap;html=1;fixedSize=1;" vertex="1" parent="1">
          <mxGeometry x="930" y="465" width="130" height="30" as="geometry" />
        </mxCell>
        <mxCell id="rmpbK_NkBcnPXk61O0qN-17" value="monitoring" style="shape=parallelogram;perimeter=parallelogramPerimeter;whiteSpace=wrap;html=1;fixedSize=1;" vertex="1" parent="1">
          <mxGeometry x="1100" y="225" width="130" height="30" as="geometry" />
        </mxCell>
        <mxCell id="rmpbK_NkBcnPXk61O0qN-18" value="dashbord" style="shape=parallelogram;perimeter=parallelogramPerimeter;whiteSpace=wrap;html=1;fixedSize=1;" vertex="1" parent="1">
          <mxGeometry x="1100" y="265" width="130" height="30" as="geometry" />
        </mxCell>
        <mxCell id="rmpbK_NkBcnPXk61O0qN-19" value="dashbord" style="shape=parallelogram;perimeter=parallelogramPerimeter;whiteSpace=wrap;html=1;fixedSize=1;" vertex="1" parent="1">
          <mxGeometry x="1100" y="305" width="130" height="30" as="geometry" />
        </mxCell>
        <mxCell id="rmpbK_NkBcnPXk61O0qN-20" value="dashbord" style="shape=parallelogram;perimeter=parallelogramPerimeter;whiteSpace=wrap;html=1;fixedSize=1;" vertex="1" parent="1">
          <mxGeometry x="1100" y="345" width="130" height="30" as="geometry" />
        </mxCell>
        <mxCell id="rmpbK_NkBcnPXk61O0qN-21" value="dashbord" style="shape=parallelogram;perimeter=parallelogramPerimeter;whiteSpace=wrap;html=1;fixedSize=1;" vertex="1" parent="1">
          <mxGeometry x="1100" y="385" width="130" height="30" as="geometry" />
        </mxCell>
        <mxCell id="rmpbK_NkBcnPXk61O0qN-22" value="dashbord" style="shape=parallelogram;perimeter=parallelogramPerimeter;whiteSpace=wrap;html=1;fixedSize=1;" vertex="1" parent="1">
          <mxGeometry x="1100" y="424.5" width="130" height="30" as="geometry" />
        </mxCell>
        <mxCell id="rmpbK_NkBcnPXk61O0qN-23" value="dashbord" style="shape=parallelogram;perimeter=parallelogramPerimeter;whiteSpace=wrap;html=1;fixedSize=1;" vertex="1" parent="1">
          <mxGeometry x="1100" y="465" width="130" height="30" as="geometry" />
        </mxCell>
        <mxCell id="rmpbK_NkBcnPXk61O0qN-24" value="" style="endArrow=classic;html=1;rounded=0;entryX=0;entryY=0.5;entryDx=0;entryDy=0;" edge="1" parent="1" target="rmpbK_NkBcnPXk61O0qN-17">
          <mxGeometry width="50" height="50" relative="1" as="geometry">
            <mxPoint x="1080" y="240" as="sourcePoint" />
            <mxPoint x="850" y="390" as="targetPoint" />
          </mxGeometry>
        </mxCell>
        <mxCell id="rmpbK_NkBcnPXk61O0qN-25" value="" style="endArrow=classic;html=1;rounded=0;entryX=0;entryY=0.5;entryDx=0;entryDy=0;" edge="1" parent="1" target="rmpbK_NkBcnPXk61O0qN-18">
          <mxGeometry width="50" height="50" relative="1" as="geometry">
            <mxPoint x="1080" y="280" as="sourcePoint" />
            <mxPoint x="1120" y="250" as="targetPoint" />
          </mxGeometry>
        </mxCell>
        <mxCell id="rmpbK_NkBcnPXk61O0qN-26" value="" style="endArrow=classic;html=1;rounded=0;entryX=0;entryY=0.5;entryDx=0;entryDy=0;" edge="1" parent="1" target="rmpbK_NkBcnPXk61O0qN-19">
          <mxGeometry width="50" height="50" relative="1" as="geometry">
            <mxPoint x="1080" y="320" as="sourcePoint" />
            <mxPoint x="1130" y="260" as="targetPoint" />
          </mxGeometry>
        </mxCell>
        <mxCell id="rmpbK_NkBcnPXk61O0qN-27" value="" style="endArrow=classic;html=1;rounded=0;entryX=0;entryY=0.5;entryDx=0;entryDy=0;" edge="1" parent="1" target="rmpbK_NkBcnPXk61O0qN-20">
          <mxGeometry width="50" height="50" relative="1" as="geometry">
            <mxPoint x="1080" y="360" as="sourcePoint" />
            <mxPoint x="1140" y="270" as="targetPoint" />
          </mxGeometry>
        </mxCell>
        <mxCell id="rmpbK_NkBcnPXk61O0qN-28" value="" style="endArrow=classic;html=1;rounded=0;entryX=0;entryY=0.5;entryDx=0;entryDy=0;" edge="1" parent="1" target="rmpbK_NkBcnPXk61O0qN-21">
          <mxGeometry width="50" height="50" relative="1" as="geometry">
            <mxPoint x="1080" y="400" as="sourcePoint" />
            <mxPoint x="1150" y="280" as="targetPoint" />
          </mxGeometry>
        </mxCell>
        <mxCell id="rmpbK_NkBcnPXk61O0qN-29" value="" style="endArrow=classic;html=1;rounded=0;entryX=0;entryY=0.5;entryDx=0;entryDy=0;" edge="1" parent="1" target="rmpbK_NkBcnPXk61O0qN-22">
          <mxGeometry width="50" height="50" relative="1" as="geometry">
            <mxPoint x="1080" y="440" as="sourcePoint" />
            <mxPoint x="1160" y="290" as="targetPoint" />
          </mxGeometry>
        </mxCell>
        <mxCell id="rmpbK_NkBcnPXk61O0qN-30" value="" style="endArrow=classic;html=1;rounded=0;entryX=0;entryY=0.5;entryDx=0;entryDy=0;exitX=1;exitY=0.5;exitDx=0;exitDy=0;" edge="1" parent="1" source="rmpbK_NkBcnPXk61O0qN-16" target="rmpbK_NkBcnPXk61O0qN-23">
          <mxGeometry width="50" height="50" relative="1" as="geometry">
            <mxPoint x="1140" y="300" as="sourcePoint" />
            <mxPoint x="1170" y="300" as="targetPoint" />
          </mxGeometry>
        </mxCell>
        <mxCell id="rmpbK_NkBcnPXk61O0qN-31" value="" style="endArrow=none;html=1;rounded=0;" edge="1" parent="1">
          <mxGeometry width="50" height="50" relative="1" as="geometry">
            <mxPoint x="1080" y="480" as="sourcePoint" />
            <mxPoint x="1080" y="240" as="targetPoint" />
          </mxGeometry>
        </mxCell>
        <mxCell id="rmpbK_NkBcnPXk61O0qN-32" value="" style="endArrow=classic;html=1;rounded=0;exitX=1;exitY=0.5;exitDx=0;exitDy=0;entryX=0;entryY=0.5;entryDx=0;entryDy=0;" edge="1" parent="1" source="rmpbK_NkBcnPXk61O0qN-15" target="rmpbK_NkBcnPXk61O0qN-16">
          <mxGeometry width="50" height="50" relative="1" as="geometry">
            <mxPoint x="800" y="320" as="sourcePoint" />
            <mxPoint x="850" y="270" as="targetPoint" />
          </mxGeometry>
        </mxCell>
        <mxCell id="rmpbK_NkBcnPXk61O0qN-33" value="" style="endArrow=classic;html=1;rounded=0;exitX=0;exitY=0.5;exitDx=0;exitDy=0;entryX=0;entryY=0.5;entryDx=0;entryDy=0;" edge="1" parent="1" source="rmpbK_NkBcnPXk61O0qN-15" target="rmpbK_NkBcnPXk61O0qN-13">
          <mxGeometry width="50" height="50" relative="1" as="geometry">
            <mxPoint x="800" y="320" as="sourcePoint" />
            <mxPoint x="850" y="270" as="targetPoint" />
            <Array as="points">
              <mxPoint x="770" y="480" />
              <mxPoint x="770" y="355" />
            </Array>
          </mxGeometry>
        </mxCell>
        <mxCell id="rmpbK_NkBcnPXk61O0qN-34" value="" style="endArrow=classic;html=1;rounded=0;exitX=1;exitY=0.5;exitDx=0;exitDy=0;entryX=0.5;entryY=0;entryDx=0;entryDy=0;" edge="1" parent="1" source="rmpbK_NkBcnPXk61O0qN-11" target="rmpbK_NkBcnPXk61O0qN-16">
          <mxGeometry width="50" height="50" relative="1" as="geometry">
            <mxPoint x="800" y="320" as="sourcePoint" />
            <mxPoint x="850" y="270" as="targetPoint" />
            <Array as="points">
              <mxPoint x="995" y="290" />
            </Array>
          </mxGeometry>
        </mxCell>
        <mxCell id="rmpbK_NkBcnPXk61O0qN-35" value="" style="endArrow=classic;html=1;rounded=0;entryX=0.5;entryY=0;entryDx=0;entryDy=0;exitX=0.5;exitY=1;exitDx=0;exitDy=0;" edge="1" parent="1" source="rmpbK_NkBcnPXk61O0qN-11" target="rmpbK_NkBcnPXk61O0qN-13">
          <mxGeometry width="50" height="50" relative="1" as="geometry">
            <mxPoint x="800" y="320" as="sourcePoint" />
            <mxPoint x="850" y="270" as="targetPoint" />
          </mxGeometry>
        </mxCell>
        <mxCell id="rmpbK_NkBcnPXk61O0qN-36" value="" style="endArrow=classic;html=1;rounded=0;exitX=0.5;exitY=1;exitDx=0;exitDy=0;entryX=0.5;entryY=0;entryDx=0;entryDy=0;" edge="1" parent="1" source="rmpbK_NkBcnPXk61O0qN-13" target="rmpbK_NkBcnPXk61O0qN-14">
          <mxGeometry width="50" height="50" relative="1" as="geometry">
            <mxPoint x="800" y="320" as="sourcePoint" />
            <mxPoint x="850" y="270" as="targetPoint" />
          </mxGeometry>
        </mxCell>
        <mxCell id="rmpbK_NkBcnPXk61O0qN-37" value="" style="endArrow=classic;html=1;rounded=0;exitX=0.5;exitY=1;exitDx=0;exitDy=0;entryX=0.5;entryY=0;entryDx=0;entryDy=0;" edge="1" parent="1" source="rmpbK_NkBcnPXk61O0qN-14" target="rmpbK_NkBcnPXk61O0qN-15">
          <mxGeometry width="50" height="50" relative="1" as="geometry">
            <mxPoint x="800" y="320" as="sourcePoint" />
            <mxPoint x="850" y="270" as="targetPoint" />
          </mxGeometry>
        </mxCell>
        <mxCell id="rmpbK_NkBcnPXk61O0qN-38" value="" style="endArrow=classic;html=1;rounded=0;entryX=0.5;entryY=0;entryDx=0;entryDy=0;exitX=0.5;exitY=1;exitDx=0;exitDy=0;" edge="1" parent="1" source="rmpbK_NkBcnPXk61O0qN-10" target="rmpbK_NkBcnPXk61O0qN-11">
          <mxGeometry width="50" height="50" relative="1" as="geometry">
            <mxPoint x="800" y="320" as="sourcePoint" />
            <mxPoint x="850" y="270" as="targetPoint" />
          </mxGeometry>
        </mxCell>
        <mxCell id="rmpbK_NkBcnPXk61O0qN-39" value="" style="endArrow=classic;html=1;rounded=0;entryX=0.5;entryY=0;entryDx=0;entryDy=0;" edge="1" parent="1">
          <mxGeometry width="50" height="50" relative="1" as="geometry">
            <mxPoint x="85" y="180" as="sourcePoint" />
            <mxPoint x="860" y="210" as="targetPoint" />
            <Array as="points">
              <mxPoint x="860" y="180" />
            </Array>
          </mxGeometry>
        </mxCell>
        <mxCell id="rmpbK_NkBcnPXk61O0qN-41" value="" style="endArrow=classic;html=1;rounded=0;entryX=0.5;entryY=0;entryDx=0;entryDy=0;" edge="1" parent="1" target="rmpbK_NkBcnPXk61O0qN-4">
          <mxGeometry width="50" height="50" relative="1" as="geometry">
            <mxPoint x="85" y="180" as="sourcePoint" />
            <mxPoint x="510" y="270" as="targetPoint" />
          </mxGeometry>
        </mxCell>
        <mxCell id="rmpbK_NkBcnPXk61O0qN-42" value="" style="endArrow=classic;html=1;rounded=0;entryX=0.5;entryY=0;entryDx=0;entryDy=0;" edge="1" parent="1" target="rmpbK_NkBcnPXk61O0qN-5">
          <mxGeometry width="50" height="50" relative="1" as="geometry">
            <mxPoint x="215" y="180" as="sourcePoint" />
            <mxPoint x="510" y="270" as="targetPoint" />
          </mxGeometry>
        </mxCell>
        <mxCell id="rmpbK_NkBcnPXk61O0qN-43" value="" style="endArrow=classic;html=1;rounded=0;entryX=0.5;entryY=0;entryDx=0;entryDy=0;" edge="1" parent="1" target="rmpbK_NkBcnPXk61O0qN-6">
          <mxGeometry width="50" height="50" relative="1" as="geometry">
            <mxPoint x="345" y="180" as="sourcePoint" />
            <mxPoint x="510" y="270" as="targetPoint" />
          </mxGeometry>
        </mxCell>
        <mxCell id="rmpbK_NkBcnPXk61O0qN-44" value="" style="endArrow=classic;html=1;rounded=0;entryX=0.5;entryY=0;entryDx=0;entryDy=0;" edge="1" parent="1" target="rmpbK_NkBcnPXk61O0qN-7">
          <mxGeometry width="50" height="50" relative="1" as="geometry">
            <mxPoint x="475" y="180" as="sourcePoint" />
            <mxPoint x="510" y="270" as="targetPoint" />
          </mxGeometry>
        </mxCell>
        <mxCell id="rmpbK_NkBcnPXk61O0qN-45" value="" style="endArrow=classic;html=1;rounded=0;entryX=0.5;entryY=0;entryDx=0;entryDy=0;" edge="1" parent="1" target="rmpbK_NkBcnPXk61O0qN-8">
          <mxGeometry width="50" height="50" relative="1" as="geometry">
            <mxPoint x="605" y="180" as="sourcePoint" />
            <mxPoint x="510" y="270" as="targetPoint" />
          </mxGeometry>
        </mxCell>
        <mxCell id="rmpbK_NkBcnPXk61O0qN-46" value="" style="endArrow=classic;html=1;rounded=0;entryX=0.5;entryY=0;entryDx=0;entryDy=0;" edge="1" parent="1" target="rmpbK_NkBcnPXk61O0qN-9">
          <mxGeometry width="50" height="50" relative="1" as="geometry">
            <mxPoint x="735" y="180" as="sourcePoint" />
            <mxPoint x="510" y="270" as="targetPoint" />
          </mxGeometry>
        </mxCell>
        <mxCell id="rmpbK_NkBcnPXk61O0qN-47" value="" style="endArrow=none;html=1;rounded=0;exitX=0.5;exitY=1;exitDx=0;exitDy=0;" edge="1" parent="1" source="rmpbK_NkBcnPXk61O0qN-3">
          <mxGeometry width="50" height="50" relative="1" as="geometry">
            <mxPoint x="460" y="320" as="sourcePoint" />
            <mxPoint x="405" y="180" as="targetPoint" />
          </mxGeometry>
        </mxCell>
        <mxCell id="rmpbK_NkBcnPXk61O0qN-48" value="" style="endArrow=classic;html=1;rounded=0;exitX=0.5;exitY=1;exitDx=0;exitDy=0;entryX=0.5;entryY=0;entryDx=0;entryDy=0;" edge="1" parent="1" source="rmpbK_NkBcnPXk61O0qN-2" target="rmpbK_NkBcnPXk61O0qN-3">
          <mxGeometry width="50" height="50" relative="1" as="geometry">
            <mxPoint x="460" y="90" as="sourcePoint" />
            <mxPoint x="510" y="40" as="targetPoint" />
          </mxGeometry>
        </mxCell>
        <mxCell id="rmpbK_NkBcnPXk61O0qN-49" value="" style="endArrow=classic;html=1;rounded=0;exitX=0.5;exitY=1;exitDx=0;exitDy=0;" edge="1" parent="1" source="rmpbK_NkBcnPXk61O0qN-1" target="rmpbK_NkBcnPXk61O0qN-2">
          <mxGeometry width="50" height="50" relative="1" as="geometry">
            <mxPoint x="460" y="90" as="sourcePoint" />
            <mxPoint x="510" y="40" as="targetPoint" />
          </mxGeometry>
        </mxCell>
        <mxCell id="rmpbK_NkBcnPXk61O0qN-50" value="yes" style="text;html=1;align=center;verticalAlign=middle;whiteSpace=wrap;rounded=0;" vertex="1" parent="1">
          <mxGeometry x="887.5" y="272.5" width="27.5" height="15" as="geometry" />
        </mxCell>
        <mxCell id="rmpbK_NkBcnPXk61O0qN-52" value="yes" style="text;html=1;align=center;verticalAlign=middle;whiteSpace=wrap;rounded=0;" vertex="1" parent="1">
          <mxGeometry x="887.5" y="465" width="27.5" height="15" as="geometry" />
        </mxCell>
        <mxCell id="rmpbK_NkBcnPXk61O0qN-53" value="no" style="text;html=1;align=center;verticalAlign=middle;whiteSpace=wrap;rounded=0;" vertex="1" parent="1">
          <mxGeometry x="860" y="310" width="27.5" height="15" as="geometry" />
        </mxCell>
        <mxCell id="rmpbK_NkBcnPXk61O0qN-55" value="no" style="text;html=1;align=center;verticalAlign=middle;whiteSpace=wrap;rounded=0;" vertex="1" parent="1">
          <mxGeometry x="815" y="465" width="27.5" height="15" as="geometry" />
        </mxCell>
        <mxCell id="rmpbK_NkBcnPXk61O0qN-56" value="choose location" style="rounded=0;whiteSpace=wrap;html=1;" vertex="1" parent="1">
          <mxGeometry x="410" y="265" width="100" height="30" as="geometry" />
        </mxCell>
        <mxCell id="rmpbK_NkBcnPXk61O0qN-58" value="map" style="shape=parallelogram;perimeter=parallelogramPerimeter;whiteSpace=wrap;html=1;fixedSize=1;" vertex="1" parent="1">
          <mxGeometry x="412.5" y="325" width="95" height="30" as="geometry" />
        </mxCell>
        <mxCell id="rmpbK_NkBcnPXk61O0qN-59" value="forecast" style="shape=parallelogram;perimeter=parallelogramPerimeter;whiteSpace=wrap;html=1;fixedSize=1;" vertex="1" parent="1">
          <mxGeometry x="-70" y="250" width="130" height="30" as="geometry" />
        </mxCell>
        <mxCell id="rmpbK_NkBcnPXk61O0qN-60" value="avg. metrological&amp;nbsp;&lt;div&gt;data&lt;/div&gt;" style="shape=parallelogram;perimeter=parallelogramPerimeter;whiteSpace=wrap;html=1;fixedSize=1;" vertex="1" parent="1">
          <mxGeometry x="-70" y="287.5" width="130" height="30" as="geometry" />
        </mxCell>
        <mxCell id="rmpbK_NkBcnPXk61O0qN-61" value="avg. air quality&lt;div&gt;data&lt;/div&gt;" style="shape=parallelogram;perimeter=parallelogramPerimeter;whiteSpace=wrap;html=1;fixedSize=1;" vertex="1" parent="1">
          <mxGeometry x="-70" y="327" width="130" height="30" as="geometry" />
        </mxCell>
        <mxCell id="rmpbK_NkBcnPXk61O0qN-62" value="weather map" style="shape=parallelogram;perimeter=parallelogramPerimeter;whiteSpace=wrap;html=1;fixedSize=1;" vertex="1" parent="1">
          <mxGeometry x="-70" y="370" width="130" height="30" as="geometry" />
        </mxCell>
        <mxCell id="rmpbK_NkBcnPXk61O0qN-63" value="" style="endArrow=classic;html=1;rounded=0;entryX=1;entryY=0.5;entryDx=0;entryDy=0;exitX=0.5;exitY=1;exitDx=0;exitDy=0;" edge="1" parent="1" source="rmpbK_NkBcnPXk61O0qN-4" target="rmpbK_NkBcnPXk61O0qN-62">
          <mxGeometry width="50" height="50" relative="1" as="geometry">
            <mxPoint x="50" y="330" as="sourcePoint" />
            <mxPoint x="100" y="280" as="targetPoint" />
            <Array as="points">
              <mxPoint x="85" y="385" />
            </Array>
          </mxGeometry>
        </mxCell>
        <mxCell id="rmpbK_NkBcnPXk61O0qN-65" value="" style="endArrow=classic;html=1;rounded=0;entryX=1;entryY=0.5;entryDx=0;entryDy=0;" edge="1" parent="1" target="rmpbK_NkBcnPXk61O0qN-61">
          <mxGeometry width="50" height="50" relative="1" as="geometry">
            <mxPoint x="85" y="342" as="sourcePoint" />
            <mxPoint x="115" y="310" as="targetPoint" />
          </mxGeometry>
        </mxCell>
        <mxCell id="rmpbK_NkBcnPXk61O0qN-66" value="" style="endArrow=classic;html=1;rounded=0;entryX=1;entryY=0.5;entryDx=0;entryDy=0;" edge="1" parent="1">
          <mxGeometry width="50" height="50" relative="1" as="geometry">
            <mxPoint x="85" y="302.34000000000003" as="sourcePoint" />
            <mxPoint x="50" y="302.34000000000003" as="targetPoint" />
          </mxGeometry>
        </mxCell>
        <mxCell id="rmpbK_NkBcnPXk61O0qN-67" value="" style="endArrow=classic;html=1;rounded=0;entryX=1;entryY=0.5;entryDx=0;entryDy=0;" edge="1" parent="1">
          <mxGeometry width="50" height="50" relative="1" as="geometry">
            <mxPoint x="85" y="264.68" as="sourcePoint" />
            <mxPoint x="50" y="264.68" as="targetPoint" />
          </mxGeometry>
        </mxCell>
        <mxCell id="rmpbK_NkBcnPXk61O0qN-68" value="like forecast" style="rounded=0;whiteSpace=wrap;html=1;" vertex="1" parent="1">
          <mxGeometry x="-200" y="250" width="100" height="30" as="geometry" />
        </mxCell>
        <mxCell id="rmpbK_NkBcnPXk61O0qN-69" value="1" style="rhombus;whiteSpace=wrap;html=1;" vertex="1" parent="1">
          <mxGeometry x="-280" y="245" width="45" height="40" as="geometry" />
        </mxCell>
        <mxCell id="rmpbK_NkBcnPXk61O0qN-70" value="sign in with google" style="shape=parallelogram;perimeter=parallelogramPerimeter;whiteSpace=wrap;html=1;fixedSize=1;" vertex="1" parent="1">
          <mxGeometry x="-322.5" y="310" width="130" height="30" as="geometry" />
        </mxCell>
        <mxCell id="rmpbK_NkBcnPXk61O0qN-71" value="3" style="rhombus;whiteSpace=wrap;html=1;" vertex="1" parent="1">
          <mxGeometry x="-280" y="365" width="45" height="40" as="geometry" />
        </mxCell>
        <mxCell id="rmpbK_NkBcnPXk61O0qN-72" value="reload" style="rounded=0;whiteSpace=wrap;html=1;" vertex="1" parent="1">
          <mxGeometry x="-190" y="370" width="70" height="30" as="geometry" />
        </mxCell>
        <mxCell id="rmpbK_NkBcnPXk61O0qN-73" value="liked" style="shape=parallelogram;perimeter=parallelogramPerimeter;whiteSpace=wrap;html=1;fixedSize=1;" vertex="1" parent="1">
          <mxGeometry x="-322.5" y="435" width="130" height="30" as="geometry" />
        </mxCell>
        <mxCell id="rmpbK_NkBcnPXk61O0qN-74" value="" style="endArrow=classic;html=1;rounded=0;entryX=1;entryY=0.5;entryDx=0;entryDy=0;exitX=0;exitY=0.5;exitDx=0;exitDy=0;" edge="1" parent="1" source="rmpbK_NkBcnPXk61O0qN-59" target="rmpbK_NkBcnPXk61O0qN-68">
          <mxGeometry width="50" height="50" relative="1" as="geometry">
            <mxPoint x="-30" y="420" as="sourcePoint" />
            <mxPoint x="20" y="370" as="targetPoint" />
          </mxGeometry>
        </mxCell>
        <mxCell id="rmpbK_NkBcnPXk61O0qN-75" value="" style="endArrow=classic;html=1;rounded=0;exitX=0;exitY=0.5;exitDx=0;exitDy=0;entryX=1;entryY=0.5;entryDx=0;entryDy=0;" edge="1" parent="1" source="rmpbK_NkBcnPXk61O0qN-68" target="rmpbK_NkBcnPXk61O0qN-69">
          <mxGeometry width="50" height="50" relative="1" as="geometry">
            <mxPoint x="-120" y="350" as="sourcePoint" />
            <mxPoint x="-70" y="300" as="targetPoint" />
          </mxGeometry>
        </mxCell>
        <mxCell id="rmpbK_NkBcnPXk61O0qN-76" value="" style="endArrow=classic;html=1;rounded=0;exitX=0.5;exitY=1;exitDx=0;exitDy=0;entryX=0.5;entryY=0;entryDx=0;entryDy=0;" edge="1" parent="1" source="rmpbK_NkBcnPXk61O0qN-69" target="rmpbK_NkBcnPXk61O0qN-70">
          <mxGeometry width="50" height="50" relative="1" as="geometry">
            <mxPoint x="-120" y="350" as="sourcePoint" />
            <mxPoint x="-70" y="300" as="targetPoint" />
          </mxGeometry>
        </mxCell>
        <mxCell id="rmpbK_NkBcnPXk61O0qN-77" value="" style="endArrow=classic;html=1;rounded=0;exitX=0.5;exitY=1;exitDx=0;exitDy=0;entryX=0.5;entryY=0;entryDx=0;entryDy=0;" edge="1" parent="1" source="rmpbK_NkBcnPXk61O0qN-70" target="rmpbK_NkBcnPXk61O0qN-71">
          <mxGeometry width="50" height="50" relative="1" as="geometry">
            <mxPoint x="-120" y="350" as="sourcePoint" />
            <mxPoint x="-70" y="300" as="targetPoint" />
          </mxGeometry>
        </mxCell>
        <mxCell id="rmpbK_NkBcnPXk61O0qN-78" value="" style="endArrow=classic;html=1;rounded=0;exitX=0.5;exitY=1;exitDx=0;exitDy=0;" edge="1" parent="1" source="rmpbK_NkBcnPXk61O0qN-71" target="rmpbK_NkBcnPXk61O0qN-73">
          <mxGeometry width="50" height="50" relative="1" as="geometry">
            <mxPoint x="-120" y="350" as="sourcePoint" />
            <mxPoint x="-70" y="300" as="targetPoint" />
          </mxGeometry>
        </mxCell>
        <mxCell id="rmpbK_NkBcnPXk61O0qN-79" value="" style="endArrow=classic;html=1;rounded=0;exitX=1;exitY=0.5;exitDx=0;exitDy=0;entryX=0;entryY=0.5;entryDx=0;entryDy=0;" edge="1" parent="1" source="rmpbK_NkBcnPXk61O0qN-71" target="rmpbK_NkBcnPXk61O0qN-72">
          <mxGeometry width="50" height="50" relative="1" as="geometry">
            <mxPoint x="-120" y="350" as="sourcePoint" />
            <mxPoint x="-70" y="300" as="targetPoint" />
          </mxGeometry>
        </mxCell>
        <mxCell id="rmpbK_NkBcnPXk61O0qN-80" value="" style="endArrow=classic;html=1;rounded=0;exitX=0.5;exitY=0;exitDx=0;exitDy=0;entryX=1;entryY=0.5;entryDx=0;entryDy=0;" edge="1" parent="1" source="rmpbK_NkBcnPXk61O0qN-72" target="rmpbK_NkBcnPXk61O0qN-70">
          <mxGeometry width="50" height="50" relative="1" as="geometry">
            <mxPoint x="-120" y="350" as="sourcePoint" />
            <mxPoint x="-70" y="300" as="targetPoint" />
            <Array as="points">
              <mxPoint x="-155" y="325" />
            </Array>
          </mxGeometry>
        </mxCell>
        <mxCell id="rmpbK_NkBcnPXk61O0qN-81" value="" style="endArrow=classic;html=1;rounded=0;exitX=0;exitY=0.5;exitDx=0;exitDy=0;entryX=0;entryY=0.5;entryDx=0;entryDy=0;" edge="1" parent="1" source="rmpbK_NkBcnPXk61O0qN-69" target="rmpbK_NkBcnPXk61O0qN-73">
          <mxGeometry width="50" height="50" relative="1" as="geometry">
            <mxPoint x="-120" y="350" as="sourcePoint" />
            <mxPoint x="-70" y="300" as="targetPoint" />
            <Array as="points">
              <mxPoint x="-340" y="265" />
              <mxPoint x="-340" y="450" />
            </Array>
          </mxGeometry>
        </mxCell>
        <mxCell id="rmpbK_NkBcnPXk61O0qN-82" value="" style="endArrow=classic;html=1;rounded=0;exitX=0.384;exitY=1.063;exitDx=0;exitDy=0;exitPerimeter=0;" edge="1" parent="1" source="rmpbK_NkBcnPXk61O0qN-7" target="rmpbK_NkBcnPXk61O0qN-56">
          <mxGeometry width="50" height="50" relative="1" as="geometry">
            <mxPoint x="440" y="360" as="sourcePoint" />
            <mxPoint x="490" y="310" as="targetPoint" />
          </mxGeometry>
        </mxCell>
        <mxCell id="rmpbK_NkBcnPXk61O0qN-83" value="" style="endArrow=classic;html=1;rounded=0;exitX=0.5;exitY=1;exitDx=0;exitDy=0;entryX=0.5;entryY=0;entryDx=0;entryDy=0;" edge="1" parent="1" source="rmpbK_NkBcnPXk61O0qN-56" target="rmpbK_NkBcnPXk61O0qN-58">
          <mxGeometry width="50" height="50" relative="1" as="geometry">
            <mxPoint x="440" y="360" as="sourcePoint" />
            <mxPoint x="490" y="310" as="targetPoint" />
          </mxGeometry>
        </mxCell>
        <mxCell id="rmpbK_NkBcnPXk61O0qN-84" value="yes" style="text;html=1;align=center;verticalAlign=middle;whiteSpace=wrap;rounded=0;" vertex="1" parent="1">
          <mxGeometry x="-307.5" y="250" width="27.5" height="15" as="geometry" />
        </mxCell>
        <mxCell id="rmpbK_NkBcnPXk61O0qN-85" value="yes" style="text;html=1;align=center;verticalAlign=middle;whiteSpace=wrap;rounded=0;" vertex="1" parent="1">
          <mxGeometry x="-260" y="405" width="27.5" height="15" as="geometry" />
        </mxCell>
        <mxCell id="rmpbK_NkBcnPXk61O0qN-86" value="no" style="text;html=1;align=center;verticalAlign=middle;whiteSpace=wrap;rounded=0;" vertex="1" parent="1">
          <mxGeometry x="-260" y="285" width="27.5" height="15" as="geometry" />
        </mxCell>
        <mxCell id="rmpbK_NkBcnPXk61O0qN-87" value="no" style="text;html=1;align=center;verticalAlign=middle;whiteSpace=wrap;rounded=0;" vertex="1" parent="1">
          <mxGeometry x="-240" y="370" width="27.5" height="15" as="geometry" />
        </mxCell>
        <mxCell id="rmpbK_NkBcnPXk61O0qN-88" value="references" style="shape=parallelogram;perimeter=parallelogramPerimeter;whiteSpace=wrap;html=1;fixedSize=1;" vertex="1" parent="1">
          <mxGeometry x="440" y="400" width="130" height="30" as="geometry" />
        </mxCell>
        <mxCell id="rmpbK_NkBcnPXk61O0qN-89" value="feedback" style="shape=parallelogram;perimeter=parallelogramPerimeter;whiteSpace=wrap;html=1;fixedSize=1;" vertex="1" parent="1">
          <mxGeometry x="440" y="440" width="130" height="30" as="geometry" />
        </mxCell>
        <mxCell id="rmpbK_NkBcnPXk61O0qN-90" value="FAQ" style="shape=parallelogram;perimeter=parallelogramPerimeter;whiteSpace=wrap;html=1;fixedSize=1;" vertex="1" parent="1">
          <mxGeometry x="440" y="480" width="130" height="30" as="geometry" />
        </mxCell>
        <mxCell id="rmpbK_NkBcnPXk61O0qN-91" value="privacy policy" style="shape=parallelogram;perimeter=parallelogramPerimeter;whiteSpace=wrap;html=1;fixedSize=1;" vertex="1" parent="1">
          <mxGeometry x="440" y="520" width="130" height="30" as="geometry" />
        </mxCell>
        <mxCell id="rmpbK_NkBcnPXk61O0qN-92" value="terms &amp;amp; conditions" style="shape=parallelogram;perimeter=parallelogramPerimeter;whiteSpace=wrap;html=1;fixedSize=1;" vertex="1" parent="1">
          <mxGeometry x="440" y="560" width="130" height="30" as="geometry" />
        </mxCell>
        <mxCell id="rmpbK_NkBcnPXk61O0qN-93" value="" style="endArrow=classic;html=1;rounded=0;exitX=0.75;exitY=1;exitDx=0;exitDy=0;entryX=1;entryY=0.5;entryDx=0;entryDy=0;" edge="1" parent="1" source="rmpbK_NkBcnPXk61O0qN-8" target="rmpbK_NkBcnPXk61O0qN-92">
          <mxGeometry width="50" height="50" relative="1" as="geometry">
            <mxPoint x="350" y="460" as="sourcePoint" />
            <mxPoint x="400" y="410" as="targetPoint" />
            <Array as="points">
              <mxPoint x="638" y="575" />
            </Array>
          </mxGeometry>
        </mxCell>
        <mxCell id="rmpbK_NkBcnPXk61O0qN-94" value="" style="endArrow=classic;html=1;rounded=0;entryX=1;entryY=0.5;entryDx=0;entryDy=0;" edge="1" parent="1" target="rmpbK_NkBcnPXk61O0qN-91">
          <mxGeometry width="50" height="50" relative="1" as="geometry">
            <mxPoint x="640" y="535" as="sourcePoint" />
            <mxPoint x="620" y="460" as="targetPoint" />
          </mxGeometry>
        </mxCell>
        <mxCell id="rmpbK_NkBcnPXk61O0qN-95" value="" style="endArrow=classic;html=1;rounded=0;entryX=1;entryY=0.5;entryDx=0;entryDy=0;" edge="1" parent="1" target="rmpbK_NkBcnPXk61O0qN-90">
          <mxGeometry width="50" height="50" relative="1" as="geometry">
            <mxPoint x="640" y="495" as="sourcePoint" />
            <mxPoint x="620" y="460" as="targetPoint" />
          </mxGeometry>
        </mxCell>
        <mxCell id="rmpbK_NkBcnPXk61O0qN-96" value="" style="endArrow=classic;html=1;rounded=0;entryX=1;entryY=0.5;entryDx=0;entryDy=0;" edge="1" parent="1" target="rmpbK_NkBcnPXk61O0qN-89">
          <mxGeometry width="50" height="50" relative="1" as="geometry">
            <mxPoint x="640" y="455" as="sourcePoint" />
            <mxPoint x="620" y="460" as="targetPoint" />
          </mxGeometry>
        </mxCell>
        <mxCell id="rmpbK_NkBcnPXk61O0qN-97" value="" style="endArrow=classic;html=1;rounded=0;entryX=1;entryY=0.5;entryDx=0;entryDy=0;" edge="1" parent="1" target="rmpbK_NkBcnPXk61O0qN-88">
          <mxGeometry width="50" height="50" relative="1" as="geometry">
            <mxPoint x="640" y="415" as="sourcePoint" />
            <mxPoint x="620" y="460" as="targetPoint" />
          </mxGeometry>
        </mxCell>
        <mxCell id="rmpbK_NkBcnPXk61O0qN-98" value="add feedback" style="rounded=0;whiteSpace=wrap;html=1;" vertex="1" parent="1">
          <mxGeometry x="312.5" y="440" width="100" height="30" as="geometry" />
        </mxCell>
        <mxCell id="rmpbK_NkBcnPXk61O0qN-115" value="1" style="rhombus;whiteSpace=wrap;html=1;" vertex="1" parent="1">
          <mxGeometry x="230" y="435" width="45" height="40" as="geometry" />
        </mxCell>
        <mxCell id="rmpbK_NkBcnPXk61O0qN-116" value="sign in with google" style="shape=parallelogram;perimeter=parallelogramPerimeter;whiteSpace=wrap;html=1;fixedSize=1;" vertex="1" parent="1">
          <mxGeometry x="187.5" y="500" width="130" height="30" as="geometry" />
        </mxCell>
        <mxCell id="rmpbK_NkBcnPXk61O0qN-117" value="3" style="rhombus;whiteSpace=wrap;html=1;" vertex="1" parent="1">
          <mxGeometry x="230" y="555" width="45" height="40" as="geometry" />
        </mxCell>
        <mxCell id="rmpbK_NkBcnPXk61O0qN-118" value="reload" style="rounded=0;whiteSpace=wrap;html=1;" vertex="1" parent="1">
          <mxGeometry x="320" y="560" width="70" height="30" as="geometry" />
        </mxCell>
        <mxCell id="rmpbK_NkBcnPXk61O0qN-119" value="feedback added" style="shape=parallelogram;perimeter=parallelogramPerimeter;whiteSpace=wrap;html=1;fixedSize=1;" vertex="1" parent="1">
          <mxGeometry x="187.5" y="625" width="130" height="30" as="geometry" />
        </mxCell>
        <mxCell id="rmpbK_NkBcnPXk61O0qN-120" value="" style="endArrow=classic;html=1;rounded=0;exitX=0;exitY=0.5;exitDx=0;exitDy=0;entryX=1;entryY=0.5;entryDx=0;entryDy=0;" edge="1" parent="1" target="rmpbK_NkBcnPXk61O0qN-115" source="rmpbK_NkBcnPXk61O0qN-98">
          <mxGeometry width="50" height="50" relative="1" as="geometry">
            <mxPoint x="310" y="455" as="sourcePoint" />
            <mxPoint x="440" y="490" as="targetPoint" />
          </mxGeometry>
        </mxCell>
        <mxCell id="rmpbK_NkBcnPXk61O0qN-121" value="" style="endArrow=classic;html=1;rounded=0;exitX=0.5;exitY=1;exitDx=0;exitDy=0;entryX=0.5;entryY=0;entryDx=0;entryDy=0;" edge="1" parent="1" source="rmpbK_NkBcnPXk61O0qN-115" target="rmpbK_NkBcnPXk61O0qN-116">
          <mxGeometry width="50" height="50" relative="1" as="geometry">
            <mxPoint x="390" y="540" as="sourcePoint" />
            <mxPoint x="440" y="490" as="targetPoint" />
          </mxGeometry>
        </mxCell>
        <mxCell id="rmpbK_NkBcnPXk61O0qN-122" value="" style="endArrow=classic;html=1;rounded=0;exitX=0.5;exitY=1;exitDx=0;exitDy=0;entryX=0.5;entryY=0;entryDx=0;entryDy=0;" edge="1" parent="1" source="rmpbK_NkBcnPXk61O0qN-116" target="rmpbK_NkBcnPXk61O0qN-117">
          <mxGeometry width="50" height="50" relative="1" as="geometry">
            <mxPoint x="390" y="540" as="sourcePoint" />
            <mxPoint x="440" y="490" as="targetPoint" />
          </mxGeometry>
        </mxCell>
        <mxCell id="rmpbK_NkBcnPXk61O0qN-123" value="" style="endArrow=classic;html=1;rounded=0;exitX=0.5;exitY=1;exitDx=0;exitDy=0;" edge="1" parent="1" source="rmpbK_NkBcnPXk61O0qN-117" target="rmpbK_NkBcnPXk61O0qN-119">
          <mxGeometry width="50" height="50" relative="1" as="geometry">
            <mxPoint x="390" y="540" as="sourcePoint" />
            <mxPoint x="440" y="490" as="targetPoint" />
          </mxGeometry>
        </mxCell>
        <mxCell id="rmpbK_NkBcnPXk61O0qN-124" value="" style="endArrow=classic;html=1;rounded=0;exitX=1;exitY=0.5;exitDx=0;exitDy=0;entryX=0;entryY=0.5;entryDx=0;entryDy=0;" edge="1" parent="1" source="rmpbK_NkBcnPXk61O0qN-117" target="rmpbK_NkBcnPXk61O0qN-118">
          <mxGeometry width="50" height="50" relative="1" as="geometry">
            <mxPoint x="390" y="540" as="sourcePoint" />
            <mxPoint x="440" y="490" as="targetPoint" />
          </mxGeometry>
        </mxCell>
        <mxCell id="rmpbK_NkBcnPXk61O0qN-125" value="" style="endArrow=classic;html=1;rounded=0;exitX=0.5;exitY=0;exitDx=0;exitDy=0;entryX=1;entryY=0.5;entryDx=0;entryDy=0;" edge="1" parent="1" source="rmpbK_NkBcnPXk61O0qN-118" target="rmpbK_NkBcnPXk61O0qN-116">
          <mxGeometry width="50" height="50" relative="1" as="geometry">
            <mxPoint x="390" y="540" as="sourcePoint" />
            <mxPoint x="440" y="490" as="targetPoint" />
            <Array as="points">
              <mxPoint x="355" y="515" />
            </Array>
          </mxGeometry>
        </mxCell>
        <mxCell id="rmpbK_NkBcnPXk61O0qN-126" value="" style="endArrow=classic;html=1;rounded=0;exitX=0;exitY=0.5;exitDx=0;exitDy=0;entryX=0;entryY=0.5;entryDx=0;entryDy=0;" edge="1" parent="1" source="rmpbK_NkBcnPXk61O0qN-115" target="rmpbK_NkBcnPXk61O0qN-119">
          <mxGeometry width="50" height="50" relative="1" as="geometry">
            <mxPoint x="390" y="540" as="sourcePoint" />
            <mxPoint x="440" y="490" as="targetPoint" />
            <Array as="points">
              <mxPoint x="170" y="455" />
              <mxPoint x="170" y="640" />
            </Array>
          </mxGeometry>
        </mxCell>
        <mxCell id="rmpbK_NkBcnPXk61O0qN-127" value="yes" style="text;html=1;align=center;verticalAlign=middle;whiteSpace=wrap;rounded=0;" vertex="1" parent="1">
          <mxGeometry x="202.5" y="440" width="27.5" height="15" as="geometry" />
        </mxCell>
        <mxCell id="rmpbK_NkBcnPXk61O0qN-128" value="yes" style="text;html=1;align=center;verticalAlign=middle;whiteSpace=wrap;rounded=0;" vertex="1" parent="1">
          <mxGeometry x="250" y="595" width="27.5" height="15" as="geometry" />
        </mxCell>
        <mxCell id="rmpbK_NkBcnPXk61O0qN-129" value="no" style="text;html=1;align=center;verticalAlign=middle;whiteSpace=wrap;rounded=0;" vertex="1" parent="1">
          <mxGeometry x="250" y="475" width="27.5" height="15" as="geometry" />
        </mxCell>
        <mxCell id="rmpbK_NkBcnPXk61O0qN-130" value="no" style="text;html=1;align=center;verticalAlign=middle;whiteSpace=wrap;rounded=0;" vertex="1" parent="1">
          <mxGeometry x="270" y="560" width="27.5" height="15" as="geometry" />
        </mxCell>
        <mxCell id="rmpbK_NkBcnPXk61O0qN-131" value="" style="endArrow=classic;html=1;rounded=0;entryX=1;entryY=0.5;entryDx=0;entryDy=0;exitX=0;exitY=0.5;exitDx=0;exitDy=0;" edge="1" parent="1" source="rmpbK_NkBcnPXk61O0qN-89" target="rmpbK_NkBcnPXk61O0qN-98">
          <mxGeometry width="50" height="50" relative="1" as="geometry">
            <mxPoint x="340" y="530" as="sourcePoint" />
            <mxPoint x="390" y="480" as="targetPoint" />
          </mxGeometry>
        </mxCell>
      </root>
    </mxGraphModel>
  </diagram>
</mxfile>
